<?xml version="1.0" encoding="UTF-8" standalone="no"?>
<svg
   width="24"
   height="24"
   viewBox="0 0 24 24"
   fill="none"
   stroke="currentColor"
   stroke-width="2"
   stroke-linecap="round"
   stroke-linejoin="round"
   class="lucide lucide-trophy w-5 h-5 text-amber-400"
   data-fg-d3bl41="0.8:32.11098:/src/app/App.tsx:121:17:4958:45:e:Trophy::::::CMvm"
   data-fgid-d3bl41=":rs:"
   version="1.1"
   id="svg6"
   sodipodi:docname="prize-mask.svg"
   inkscape:version="1.4 (e7c3feb100, 2024-10-09)"
   xmlns:inkscape="http://www.inkscape.org/namespaces/inkscape"
   xmlns:sodipodi="http://sodipodi.sourceforge.net/DTD/sodipodi-0.dtd"
   xmlns="http://www.w3.org/2000/svg"
   xmlns:svg="http://www.w3.org/2000/svg">
  <defs
     id="defs6" />
  <sodipodi:namedview
     id="namedview6"
     pagecolor="#505050"
     bordercolor="#eeeeee"
     borderopacity="1"
     inkscape:showpageshadow="0"
     inkscape:pageopacity="0"
     inkscape:pagecheckerboard="0"
     inkscape:deskcolor="#505050"
     inkscape:zoom="33.375"
     inkscape:cx="12"
     inkscape:cy="12"
     inkscape:window-width="1920"
     inkscape:window-height="1010"
     inkscape:window-x="0"
     inkscape:window-y="0"
     inkscape:window-maximized="1"
     inkscape:current-layer="svg6" />
  <path
     d="M6 9H4.5a2.5 2.5 0 0 1 0-5H6"
     id="path1"
     style="stroke:#ffffff;stroke-opacity:1" />
  <path
     d="M18 9h1.5a2.5 2.5 0 0 0 0-5H18"
     id="path2"
     style="stroke:#ffffff;stroke-opacity:1" />
  <path
     d="M4 22h16"
     id="path3"
     style="stroke:#ffffff;stroke-opacity:1" />
  <path
     d="M10 14.66V17c0 .55-.47.98-.97 1.21C7.85 18.75 7 20.24 7 22"
     id="path4"
     style="stroke:#ffffff;stroke-opacity:1" />
  <path
     d="M14 14.66V17c0 .55.47.98.97 1.21C16.15 18.75 17 20.24 17 22"
     id="path5"
     style="stroke:#ffffff;stroke-opacity:1" />
  <path
     d="M18 2H6v7a6 6 0 0 0 12 0V2Z"
     id="path6"
     style="stroke:#ffffff;stroke-opacity:1" />
</svg>
