<?xml version="1.0" encoding="UTF-8" standalone="no"?>
<svg
   width="228.79387"
   height="218.4445"
   viewBox="0 0 60.535043 57.796775"
   version="1.1"
   id="svg1"
   xmlns="http://www.w3.org/2000/svg"
   xmlns:svg="http://www.w3.org/2000/svg">
  <defs
     id="defs1" />
  <g
     id="layer1"
     transform="translate(-2.003774,-5.0887933)">
    <path
       d="m 11.762165,6.0624634 c 0.512229,-1.2982266 2.349788,-1.2982266 2.862015,0 l 2.239385,5.6785276 c 0.156404,0.396604 0.470205,0.710405 0.866811,0.866809 l 5.678526,2.239385 c 1.298226,0.512228 1.298226,2.349786 0,2.862016 l -5.678526,2.239384 c -0.396606,0.156404 -0.710407,0.470205 -0.866811,0.86681 l -2.239385,5.678527 c -0.512227,1.298225 -2.349786,1.298225 -2.862015,0 L 9.522781,20.815395 C 9.3663768,20.41879 9.0525753,20.104987 8.6559714,19.948585 L 2.9774439,17.709201 c -1.2982266,-0.51223 -1.2982266,-2.349788 0,-2.862016 L 8.6559714,12.6078 c 0.3966039,-0.156404 0.710407,-0.470205 0.8668096,-0.866809 z"
       fill="#1c274c"
       id="path2"
       style="fill:#ffffff;fill-opacity:1;stroke-width:2.48654" />
    <path
       id="rect1"
       style="fill:#ffffff;fill-opacity:1;stroke:#ffffff;stroke-width:0;stroke-dasharray:none"
       d="m 31.350563,13.573204 c -3.02501,0 -5.460125,2.435114 -5.460125,5.460124 v 38.391668 c 0,3.02501 2.435115,5.460571 5.460125,5.460571 h 25.727684 c 3.02501,0 5.460571,-2.435561 5.460571,-5.460571 V 19.033328 c 0,-3.02501 -2.435561,-5.460124 -5.460571,-5.460124 z m 8.575597,13.594422 c 0.534675,0.0065 1.078394,0.208339 1.523755,0.652782 l 4.416567,4.407625 c 0.435079,0.434228 1.030617,0.668548 1.644922,0.64697 l 6.235416,-0.219084 c 2.012303,-0.07072 3.070864,2.35958 1.6485,3.784798 l -4.407177,4.416119 c -0.434211,0.435072 -0.668568,1.031075 -0.646971,1.64537 l 0.219084,6.235415 c 0.07072,2.012303 -2.359579,3.070863 -3.784798,1.6485 L 42.358892,45.978944 C 41.9238,45.544742 41.328283,45.310368 40.713969,45.331974 l -6.235863,0.219084 c -2.012157,0.07066 -3.07027,-2.359644 -1.648052,-3.784798 l 4.407177,-4.416567 c 0.434221,-0.435098 0.668556,-1.030599 0.64697,-1.644922 l -0.219084,-6.235863 c -0.04858,-1.383359 1.084756,-2.315661 2.261043,-2.301282 z" />
  </g>
</svg>
