<?xml version="1.0" encoding="UTF-8" standalone="no"?>
<!-- Uploaded to: SVG Repo, www.svgrepo.com, Generator: SVG Repo Mixer Tools -->

<svg
   fill="#000000"
   height="800px"
   width="800px"
   version="1.1"
   id="Layer_1"
   viewBox="0 0 512 512"
   xml:space="preserve"
   sodipodi:docname="card-deck-mask.svg"
   inkscape:version="1.4 (e7c3feb100, 2024-10-09)"
   xmlns:inkscape="http://www.inkscape.org/namespaces/inkscape"
   xmlns:sodipodi="http://sodipodi.sourceforge.net/DTD/sodipodi-0.dtd"
   xmlns="http://www.w3.org/2000/svg"
   xmlns:svg="http://www.w3.org/2000/svg"><defs
   id="defs5" /><sodipodi:namedview
   id="namedview5"
   pagecolor="#505050"
   bordercolor="#eeeeee"
   borderopacity="1"
   inkscape:showpageshadow="0"
   inkscape:pageopacity="0"
   inkscape:pagecheckerboard="0"
   inkscape:deskcolor="#505050"
   inkscape:zoom="0.83698242"
   inkscape:cx="284.95222"
   inkscape:cy="409.20812"
   inkscape:window-width="1920"
   inkscape:window-height="1010"
   inkscape:window-x="0"
   inkscape:window-y="0"
   inkscape:window-maximized="1"
   inkscape:current-layer="Layer_1" />
<path
   id="path2-7-7-5"
   style="fill:#ffffff;fill-opacity:0.75;stroke:none;stroke-width:0.702141"
   d="M 195.34625,120.80875 41.5775,139.29375 C 31.73831,140.47659 24.69341,149.44581 25.87625,159.285 L 64.495,480.52 c 1.1836,9.84546 10.15206,16.88283 19.99125,15.7 l 226.0525,-27.175 c 9.83919,-1.18284 16.88483,-10.14578 15.70125,-19.99125 l -7.0825,-58.9175 -72.28375,8.69 c -9.83919,1.18283 -18.8089,-5.85579 -19.9925,-15.70125 z"
   sodipodi:nodetypes="ccccccccccc" /><path
   id="path2-7-7-3"
   style="fill:#ffffff;fill-opacity:0.766357;stroke:none;stroke-width:0.702141"
   d="M 190.2925 78.76875 L 98.1525 89.84625 C 88.31331 91.02909 81.26841 99.998313 82.45125 109.8375 L 121.06875 431.07125 C 122.25235 440.91671 131.22206 447.95533 141.06125 446.7725 L 367.11375 419.5975 C 376.95294 418.41466 383.99858 409.45047 382.815 399.605 L 380.78625 382.7275 L 246.87375 398.82625 C 237.03456 400.00908 228.06485 392.97046 226.88125 383.125 L 190.2925 78.76875 z " /><path
   id="path2-7"
   style="fill:#ffffff;fill-opacity:1;stroke:none;stroke-width:0.702141"
   d="m 203.96484,41.899598 c -9.83919,1.182847 -16.88374,10.152584 -15.7009,19.99177 l 38.61775,321.233852 c 1.1836,9.84546 10.15259,16.88372 19.99178,15.70089 l 226.05316,-27.17543 c 9.83919,-1.18284 16.88449,-10.14629 15.70091,-19.99176 L 450.00977,30.425066 C 448.82624,20.585982 439.8563,13.541448 430.01713,14.72428 Z m 121.30552,36.847911 c 21.99726,-2.644439 39.65946,0.596969 52.98699,9.723227 13.53907,9.100817 21.28738,21.794194 23.2453,38.080614 1.04252,8.67199 0.57046,16.34566 -1.41637,23.02157 -1.98684,6.67593 -5.39894,13.09407 -10.23715,19.25447 -4.86363,5.94893 -11.0514,12.48633 -18.56298,19.61186 -5.59988,5.17913 -9.90122,9.55829 -12.904,13.1378 -3.00279,3.57952 -4.96072,6.92654 -5.8738,10.04026 -0.70159,3.0883 -0.78587,6.85329 -0.25191,11.29505 l 1.10614,9.20112 -40.92717,4.92016 -1.37315,-11.42235 c -1.27138,-10.5756 -0.11823,-19.7257 3.45894,-27.45108 3.57721,-7.72538 10.28867,-16.14914 20.13497,-25.27188 8.70435,-7.9126 14.77376,-14.54299 18.20765,-19.89088 3.62,-5.58484 5.02333,-11.7615 4.20966,-18.52987 -0.81368,-6.76839 -3.96203,-11.54022 -9.44515,-14.31414 -5.29705,-3.01088 -12.38748,-3.98186 -21.27096,-2.91391 -8.88351,1.06793 -17.49653,3.49794 -25.83798,7.29009 -8.34143,3.79219 -16.77957,8.56145 -25.31519,14.3081 l -20.89649,-31.92574 c 9.67756,-6.956759 20.32879,-12.957809 31.95271,-18.002866 11.62391,-5.04506 24.62715,-8.432546 39.00994,-10.161605 z m 12.5774,182.266381 c 7.40294,-0.88996 13.9896,0.35689 19.7605,3.73993 5.74551,3.17155 9.20368,9.6214 10.37333,19.35097 1.1188,9.30652 -0.71206,16.39308 -5.49131,21.25902 -4.80466,4.65441 -10.90816,7.42683 -18.31108,8.31679 -7.61442,0.91539 -14.30678,-0.31877 -20.07769,-3.7018 -5.79633,-3.59457 -9.25376,-10.04541 -10.37256,-19.35193 -1.16965,-9.72956 0.66045,-16.81516 5.49055,-21.25807 4.80468,-4.6544 11.01385,-7.43953 18.62826,-8.35491 z" />
</svg>
