<?xml version="1.0" encoding="UTF-8" standalone="no"?>
<!-- Created with Inkscape (http://www.inkscape.org/) -->

<svg
   width="148.936"
   height="155.60167"
   viewBox="0 0 39.405984 41.169608"
   version="1.1"
   id="svg1"
   xmlns="http://www.w3.org/2000/svg"
   xmlns:svg="http://www.w3.org/2000/svg">
  <defs
     id="defs1" />
  <path
     class="stone_een"
     d="m 12.199177,11.356524 -5.2726332,5.272637 c -0.80495,0.804949 -1.247886,1.873956 -1.247886,3.011106 V 38.33015 c 0,1.723474 -1.5431755,3.093451 -3.3205955,2.799579 C 0.9625328,40.899744 4.0502429e-7,39.585136 4.0502429e-7,38.169732 V 20.584345 C 4.0502429e-7,15.487749 4.131224,11.356524 9.2278208,11.356524 Z M 38.159163,21.122397 26.973625,9.9368613 v -4.006294 c 0,-2.96426 -2.162149,-5.61619322 -5.11221,-5.90296552 -3.385899,-0.3293621 -6.245104,2.33250902 -6.245104,5.65026452 V 20.584345 c 0,0.391826 0.318006,0.709832 0.709831,0.709832 0.391829,0 0.709833,-0.318006 0.709833,-0.709832 V 5.6778663 c 0,-2.6263789 2.389295,-4.70476802 5.107954,-4.1766527 2.021601,0.393247 3.410033,2.28566 3.410033,4.3441737 v 2.671808 l -1.247884,-1.247884 c -1.60848,-1.6099 -4.178074,-1.646812 -5.850438,-0.140548 V 20.584345 c 0,1.174063 -0.955435,2.129496 -2.129498,2.129496 -1.174062,0 -2.129496,-0.955433 -2.129496,-2.129496 v -9.217883 l -6.2663992,6.266399 c -0.536635,0.536635 -0.831924,1.249305 -0.831924,2.007406 v 4.493239 L 21.12319,38.158372 c 1.663847,1.663847 4.359789,1.663847 6.023634,0 L 38.159163,27.146034 c 1.662427,-1.663847 1.662427,-4.36121 0,-6.023637 z"
     id="path1-6"
     style="fill:#ffffff;stroke-width:1.41966" />
</svg>
