<?xml version="1.0" encoding="UTF-8" standalone="no"?>
<!-- Created with Inkscape (http://www.inkscape.org/) -->

<svg
   width="157.24998"
   height="166.017"
   viewBox="0 0 41.605724 43.925331"
   version="1.1"
   id="svg1"
   sodipodi:docname="fill-interactive-mask.svg"
   inkscape:version="1.4 (e7c3feb100, 2024-10-09)"
   xmlns:inkscape="http://www.inkscape.org/namespaces/inkscape"
   xmlns:sodipodi="http://sodipodi.sourceforge.net/DTD/sodipodi-0.dtd"
   xmlns="http://www.w3.org/2000/svg"
   xmlns:svg="http://www.w3.org/2000/svg">
  <sodipodi:namedview
     id="namedview1"
     pagecolor="#505050"
     bordercolor="#eeeeee"
     borderopacity="1"
     inkscape:showpageshadow="0"
     inkscape:pageopacity="0"
     inkscape:pagecheckerboard="0"
     inkscape:deskcolor="#505050"
     inkscape:zoom="4.8248071"
     inkscape:cx="78.655994"
     inkscape:cy="83.0085"
     inkscape:window-width="1920"
     inkscape:window-height="1010"
     inkscape:window-x="0"
     inkscape:window-y="0"
     inkscape:window-maximized="1"
     inkscape:current-layer="layer1" />
  <defs
     id="defs1" />
  <path
     class="stone_een"
     d="M 10.587616,9.8562824 6.0115186,14.432381 c -0.698613,0.698612 -1.083035,1.626399 -1.083035,2.613328 v 16.220873 c 0,1.495796 -1.3393158,2.684793 -2.8819314,2.429743 C 0.83537778,35.496722 -2.1940977e-7,34.355779 -2.1940977e-7,33.127355 V 17.86507 C -2.1940977e-7,13.441755 3.585472,9.8562824 8.0087866,9.8562824 Z M 33.118182,18.332043 23.410299,8.6241614 V 5.1471151 c 0,-2.5726688 -1.87652,-4.87427088 -4.436867,-5.12315938 -2.938608,-0.285852 -5.4201,2.02437498 -5.4201,4.90384188 V 17.86507 c 0,0.340064 0.275996,0.61606 0.61606,0.61606 0.340066,0 0.616061,-0.275996 0.616061,-0.61606 V 4.9277976 c 0,-2.2794239 2.073659,-4.08324928 4.433172,-3.6249002 1.754539,0.3412975 2.959554,1.983715 2.959554,3.7702905 V 7.3920398 L 21.095145,6.3090054 C 19.699152,4.91178 17.469012,4.8797449 16.017574,6.1870254 V 17.86507 c 0,1.018964 -0.829218,1.848181 -1.848182,1.848181 -1.018964,0 -1.848182,-0.829217 -1.848182,-1.848181 V 9.8649074 L 6.8826286,15.303489 c -0.465743,0.465743 -0.722024,1.084266 -0.722024,1.74222 v 3.899663 L 18.33273,33.117496 c 1.444046,1.444046 3.783843,1.444046 5.227888,0 l 9.557564,-9.557563 c 1.442813,-1.444046 1.442813,-3.785076 0,-5.22789 z"
     id="path1-6"
     style="fill:#ffffff;stroke-width:1.23212" />
  <g
     id="layer1"
     transform="translate(-5.2074734,-2.5669396)">
    <path
       fill="#000000"
       d="m 29.262233,34.716865 0.704655,0.560734 V 24.076008 c -0.04697,-2.104045 1.645806,-3.835036 3.750374,-3.835036 2.104568,0 3.797349,1.730991 3.750374,3.835036 v 4.898944 c -1.41e-4,0.4126 0.270286,0.776476 0.665404,0.895305 l 6.016673,1.803693 c 1.581214,0.474638 2.663848,1.930305 2.663485,3.581219 v 9.367992 c 0,1.032282 -0.83683,1.869112 -1.869112,1.869112 H 29.991187 c -1.176634,0 -2.2846,-0.553983 -2.99058,-1.49529 l -5.272766,-7.031601 c -1.094186,-1.458193 -0.73406,-3.536825 0.786896,-4.541943 1.671795,-1.104994 3.86519,-1.006872 5.431641,0.242985 z"
       id="path1"
       style="fill:#ffffff;fill-opacity:0.75;stroke-width:0.0292049" />
  </g>
</svg>
