<?xml version="1.0" encoding="UTF-8" standalone="no"?>
<!-- Uploaded to: SVG Repo, www.svgrepo.com, Transformed by: SVG Repo Mixer Tools -->

<svg
   version="1.1"
   id="Layer_1"
   viewBox="0 0 32 32"
   xml:space="preserve"
   width="800px"
   height="800px"
   fill="#ffffff"
   sodipodi:docname="finish-mask.svg"
   inkscape:version="1.4 (e7c3feb100, 2024-10-09)"
   xmlns:inkscape="http://www.inkscape.org/namespaces/inkscape"
   xmlns:sodipodi="http://sodipodi.sourceforge.net/DTD/sodipodi-0.dtd"
   xmlns="http://www.w3.org/2000/svg"
   xmlns:svg="http://www.w3.org/2000/svg"><defs
   id="defs12" /><sodipodi:namedview
   id="namedview12"
   pagecolor="#505050"
   bordercolor="#eeeeee"
   borderopacity="1"
   inkscape:showpageshadow="0"
   inkscape:pageopacity="0"
   inkscape:pagecheckerboard="0"
   inkscape:deskcolor="#505050"
   inkscape:zoom="0.63360352"
   inkscape:cx="276.9871"
   inkscape:cy="387.46628"
   inkscape:window-width="1920"
   inkscape:window-height="1010"
   inkscape:window-x="0"
   inkscape:window-y="0"
   inkscape:window-maximized="1"
   inkscape:current-layer="Layer_1" />

<g
   id="SVGRepo_bgCarrier"
   stroke-width="0" />

<g
   id="SVGRepo_tracerCarrier"
   stroke-linecap="round"
   stroke-linejoin="round" />

<g
   id="SVGRepo_iconCarrier"
   transform="matrix(1.2104365,0,0,1.2104365,-3.3669847,-3.3669847)"> <polyline
   style="fill:none;stroke:#ffffff;stroke-width:2;stroke-miterlimit:10"
   points="6,28 6,5 26,5 26,19 6,19 "
   id="polyline1" /> <rect
   x="22"
   y="5"
   width="4"
   height="4"
   id="rect1" /> <rect
   x="19"
   y="15"
   width="3"
   height="4"
   id="rect2" /> <rect
   x="19"
   y="9"
   width="3"
   height="3"
   id="rect3" /> <rect
   x="13"
   y="15"
   width="3"
   height="4"
   id="rect4" /> <rect
   x="13"
   y="9"
   width="3"
   height="3"
   id="rect5" /> <rect
   x="6"
   y="15"
   width="4"
   height="4"
   id="rect6" /> <rect
   x="6"
   y="9"
   width="4"
   height="3"
   id="rect7" /> <rect
   x="22"
   y="12"
   width="4"
   height="3"
   id="rect8" /> <rect
   x="16"
   y="12"
   width="3"
   height="3"
   id="rect9" /> <rect
   x="10"
   y="12"
   width="3"
   height="3"
   id="rect10" /> <rect
   x="16"
   y="5"
   width="3"
   height="4"
   id="rect11" /> <rect
   x="10"
   y="5"
   width="3"
   height="4"
   id="rect12" /> </g>

</svg>
