<?xml version="1.0" encoding="UTF-8" standalone="no"?>
<!-- Uploaded to: SVG Repo, www.svgrepo.com, Transformed by: SVG Repo Mixer Tools -->

<svg
   fill="#ffffff"
   width="800"
   height="800"
   viewBox="0 0 24 24"
   version="1.1"
   id="svg1"
   xmlns="http://www.w3.org/2000/svg"
   xmlns:svg="http://www.w3.org/2000/svg">
  <defs
     id="defs1" />
  <path
     fill-rule="evenodd"
     d="m 5.3876266,19.790733 -0.09421,-0.08319 -3,-3.00007 c -0.02701,-0.02701 -0.05249,-0.05557 -0.07628,-0.08551 l -0.08271,-0.121265 v 0 l -0.03839,-0.07329 v 0 l -0.03622,-0.08704 v 0 l -0.03186,-0.106462 v 0 l -0.0207,-0.116918 -0.0062,-0.08362 v 0 l 0.0012,-0.09206 0.01356,-0.11577 v 0 l 0.03444,-0.137348 v 0 l 0.04394,-0.111081 v 0 l 0.05232,-0.09749 v 0 l 0.06679,-0.09605 0.08011,-0.09035 3,-3.000078 c 0.390524,-0.390534 1.02369,-0.390534 1.414214,0 0.360484,0.360494 0.388213,0.927739 0.08319,1.320041 l -0.08319,0.09421 -1.292107,1.292849 9.5850004,7.7e-5 c 0.512835,0 0.935507,0.38604 0.993272,0.883379 l 0.0067,0.116673 c 0,0.552285 -0.447715,1 -1,1 l -9.5850004,-1.29e-4 1.292107,1.293055 c 0.360484,0.360494 0.388213,0.927739 0.08319,1.320041 l -0.08319,0.09421 c -0.330444,0.330452 -0.834612,0.381291 -1.21851,0.152516 z M 18.707788,4.2931378 l 3,3.00007 0.09658,0.1119474 0.07144,0.1108824 v 0 l 0.05377,0.1132184 v 0 l 0.03538,0.1052189 v 0 l 0.02042,0.091062 v 0 l 0.01356,0.1157706 v 0.1181769 0 l -0.01354,0.1155173 v 0 L 21.95081,8.31309 v 0 l -0.01952,0.053957 -0.03928,0.087152 v 0 l -0.0374,0.066827 v 0 l -0.05506,0.081019 v 0 l -0.05242,0.063771 v 0 l -0.03935,0.041657 -3,3.00007 -0.09421,0.08319 c -0.359601,0.279614 -0.866199,0.279614 -1.225799,0 l -0.09421,-0.08319 -0.08319,-0.09421 c -0.279606,-0.35961 -0.279606,-0.866221 0,-1.225831 l 0.08319,-0.09421 1.292107,-1.293056 -9.5850004,1.293e-4 c -0.512836,0 -0.935507,-0.3860402 -0.993272,-0.8833789 l -0.0067,-0.1166211 0.0067,-0.1166729 c 0.053322,-0.4590808 0.417569,-0.8233285 0.876651,-0.8766501 l 0.116621,-0.00673 9.5850004,-7.75e-5 -1.292107,-1.2928491 -0.08319,-0.09421 C 16.90536,5.2208768 16.93309,4.6536311 17.293574,4.2931378 17.654058,3.9326445 18.221289,3.9049142 18.61358,4.209947 Z"
     id="path1" />
</svg>
