<?xml version="1.0" encoding="UTF-8" standalone="no"?>
<!-- Uploaded to: SVG Repo, www.svgrepo.com, Transformed by: SVG Repo Mixer Tools -->

<svg
   width="800"
   height="800"
   viewBox="0 0 24 24"
   fill="none"
   version="1.1"
   id="svg1"
   xmlns="http://www.w3.org/2000/svg"
   xmlns:svg="http://www.w3.org/2000/svg">
  <defs
     id="defs1" />
  <path
     id="rect1"
     style="opacity:1;fill:#ffffff;fill-opacity:1;stroke-width:1.5"
     d="m 12.000879,2.015625 c -0.455,0 -0.909961,0.1475 -1.254961,0.4425 l -1.5800391,1.35 c -0.3,0.25 -0.86,0.4600195 -1.26,0.4600195 H 6.2058984 c -1.06,0 -1.9300195,0.869961 -1.9300195,1.929961 v 1.700039 c 0,0.4 -0.2099609,0.96 -0.4599609,1.26 l -1.35,1.5799805 c -0.61,0.68 -0.6100391,1.80998 -0.020039,2.50998 l 1.35,1.579981 c 0.25,0.3 0.4600195,0.86 0.4600195,1.26 v 1.700039 c 0,1.06 0.8700196,1.929961 1.9300196,1.929961 h 1.6999804 c 0.4,0 0.9700196,0.210009 1.2700196,0.460019 l 1.5799799,1.35 c 0.69,0.58999 1.819981,0.58999 2.509981,0 l 1.600078,-1.35 c 0.3,-0.25001 0.86,-0.460019 1.26,-0.460019 h 1.729981 c 1.059999,0 1.930019,-0.869961 1.930019,-1.929961 v -1.700039 c 0,-0.39 0.2,-0.949981 0.45,-1.249981 l 1.35,-1.59 c 0.58,-0.7 0.58,-1.81996 0,-2.49996 l -1.35,-1.5900005 c -0.25,-0.29 -0.45,-0.860039 -0.45,-1.250039 v -1.71 c 0,-1.06 -0.870019,-1.929961 -1.930019,-1.929961 h -1.740001 c -0.39,0 -0.96,-0.2100195 -1.259999,-0.4600195 l -1.58004,-1.35 c -0.345,-0.295 -0.800019,-0.4425 -1.255019,-0.4425 z m 0.005,5.1025195 c 0.55,0 0.999961,0.449961 0.999961,0.999961 0,0.55 -0.439961,1.0000195 -0.999961,1.0000195 -0.55,0 -1.00002,-0.4500195 -1.00002,-1.0000195 0,-0.55 0.44002,-0.999961 1.00002,-0.999961 z m 0,3.1599605 c 0.41,0 0.75,0.34 0.75,0.75 v 4.83 c 0,0.41 -0.34,0.75 -0.75,0.75 -0.41,0 -0.75,-0.34 -0.75,-0.75 v -4.83 c 0,-0.41 0.34,-0.75 0.75,-0.75 z" />
</svg>
