<?xml version="1.0" encoding="UTF-8" standalone="no"?>
<!-- Uploaded to: SVG Repo, www.svgrepo.com, Generator: SVG Repo Mixer Tools -->

<svg
   fill="#000000"
   height="800px"
   width="800px"
   version="1.1"
   id="Layer_1"
   viewBox="0 0 512 512"
   xml:space="preserve"
   sodipodi:docname="quiz-card-mask.svg"
   inkscape:version="1.4 (e7c3feb100, 2024-10-09)"
   xmlns:inkscape="http://www.inkscape.org/namespaces/inkscape"
   xmlns:sodipodi="http://sodipodi.sourceforge.net/DTD/sodipodi-0.dtd"
   xmlns="http://www.w3.org/2000/svg"
   xmlns:svg="http://www.w3.org/2000/svg"><defs
   id="defs5" /><sodipodi:namedview
   id="namedview5"
   pagecolor="#505050"
   bordercolor="#eeeeee"
   borderopacity="1"
   inkscape:showpageshadow="0"
   inkscape:pageopacity="0"
   inkscape:pagecheckerboard="0"
   inkscape:deskcolor="#505050"
   inkscape:zoom="0.83698242"
   inkscape:cx="359.02785"
   inkscape:cy="411.59765"
   inkscape:window-width="1920"
   inkscape:window-height="1010"
   inkscape:window-x="0"
   inkscape:window-y="0"
   inkscape:window-maximized="1"
   inkscape:current-layer="Layer_1" />
<path
   id="path2"
   style="fill:#ffffff;fill-opacity:1;stroke:none;stroke-width:0.867768"
   d="m 149.3717,15.635421 c -12.11552,-1.794404 -23.43544,6.604942 -25.22985,18.720464 L 65.557386,429.9087 c -1.795548,12.12325 6.604942,23.43545 18.720465,25.22985 l 278.351629,41.22606 c 12.11552,1.7944 23.43429,-6.59722 25.22985,-18.72047 L 446.4438,82.091323 C 448.23733,69.975674 439.83778,58.655718 427.72226,56.861315 Z M 281.991,99.074253 c 27.08642,4.011707 47.08758,13.628637 60.00431,28.849677 13.17717,15.25961 18.28054,32.91627 15.31033,52.97063 -1.58154,10.6783 -4.64361,19.6731 -9.18663,26.98503 -4.54303,7.31192 -10.70131,13.85233 -18.47584,19.621 -7.73595,5.50823 -17.24224,11.2868 -28.51829,17.33535 -8.363,4.35072 -14.91735,8.17062 -19.66309,11.46013 -4.74576,3.28951 -8.17011,6.64212 -10.27282,10.05692 -1.84227,3.45337 -3.16901,7.91454 -3.97907,13.38391 l -1.67804,11.32987 -50.39586,-7.46402 2.08313,-14.06496 c 1.92871,-13.02231 6.28357,-23.55551 13.06447,-31.60063 6.78089,-8.04511 17.52587,-15.90202 32.23586,-23.57125 12.95446,-6.59844 22.34988,-12.52642 28.18557,-17.78377 6.1347,-5.47923 9.81949,-12.38597 11.05385,-20.72026 1.23438,-8.33428 -0.96495,-15.04865 -6.59847,-20.14157 -5.3345,-5.31479 -13.47144,-8.78173 -24.41019,-10.40184 -10.93874,-1.62012 -21.99864,-1.5283 -33.1784,0.27596 -11.17976,1.80426 -22.79305,4.74191 -34.84086,8.81304 L 188.21624,109.5397 c 13.80337,-5.14192 28.45629,-8.82731 43.95749,-11.056174 15.5012,-2.228861 32.10694,-2.032313 49.81727,0.590727 z M 237.62235,320.46873 c 9.11562,1.3501 16.56216,4.98184 22.3404,10.89467 5.81683,5.65239 7.83897,14.46824 6.06457,26.44876 -1.69727,11.45964 -6.1881,19.31195 -13.47074,23.55653 -7.24406,3.98412 -15.4236,5.30153 -24.53923,3.95143 -9.37605,-1.38867 -16.95271,-5.03968 -22.73097,-10.95252 -5.73967,-6.17328 -7.76059,-14.99004 -6.06333,-26.44968 1.77441,-11.98052 6.26402,-19.83192 13.46951,-23.5556 7.24407,-3.98413 15.55374,-5.28226 24.92979,-3.89359 z" />
</svg>
