<?xml version="1.0" encoding="UTF-8" standalone="no"?>
<!-- Uploaded to: SVG Repo, www.svgrepo.com, Generator: SVG Repo Mixer Tools -->

<svg
   width="800px"
   height="800px"
   viewBox="0 0 24 24"
   fill="none"
   version="1.1"
   id="svg1"
   sodipodi:docname="star-mask.svg"
   inkscape:version="1.4 (e7c3feb100, 2024-10-09)"
   xmlns:inkscape="http://www.inkscape.org/namespaces/inkscape"
   xmlns:sodipodi="http://sodipodi.sourceforge.net/DTD/sodipodi-0.dtd"
   xmlns="http://www.w3.org/2000/svg"
   xmlns:svg="http://www.w3.org/2000/svg">
  <defs
     id="defs1" />
  <sodipodi:namedview
     id="namedview1"
     pagecolor="#505050"
     bordercolor="#eeeeee"
     borderopacity="1"
     inkscape:showpageshadow="0"
     inkscape:pageopacity="0"
     inkscape:pagecheckerboard="0"
     inkscape:deskcolor="#505050"
     inkscape:zoom="1.00125"
     inkscape:cx="400"
     inkscape:cy="400"
     inkscape:window-width="1920"
     inkscape:window-height="1010"
     inkscape:window-x="0"
     inkscape:window-y="0"
     inkscape:window-maximized="1"
     inkscape:current-layer="svg1" />
  <path
     d="m 11.153433,3.2202783 c 0.268146,-0.6015971 0.402277,-0.9023956 0.588994,-0.9950248 0.162162,-0.080478 0.352586,-0.080478 0.514748,0 0.186718,0.092629 0.320849,0.3934277 0.588995,0.9950248 l 2.135902,4.7917998 c 0.07934,0.1778452 0.118958,0.2667678 0.180348,0.3348641 0.05421,0.060255 0.120578,0.1084515 0.194594,0.1414399 0.08375,0.037297 0.180578,0.047513 0.374246,0.067946 l 5.217324,0.5506667 c 0.655018,0.069127 0.982469,0.1036909 1.128298,0.2526365 0.126603,0.1293704 0.185444,0.3105283 0.159035,0.4896476 -0.03035,0.2061771 -0.27498,0.4266011 -0.764245,0.8675651 l -3.897327,3.512193 c -0.144556,0.130308 -0.21695,0.195521 -0.262703,0.274864 -0.04054,0.07031 -0.06591,0.148262 -0.07436,0.22888 -0.0096,0.09116 0.01054,0.18637 0.05097,0.37691 l 1.088569,5.132073 c 0.136679,0.644362 0.205019,0.966485 0.108416,1.151117 -0.08398,0.160541 -0.23803,0.272432 -0.416524,0.302664 -0.205482,0.03475 -0.490771,-0.12973 -1.061349,-0.458802 l -4.544584,-2.62123 c -0.168648,-0.0973 -0.252972,-0.145829 -0.342624,-0.164941 -0.07934,-0.0168 -0.161351,-0.0168 -0.240695,0 -0.08965,0.01911 -0.173976,0.06764 -0.342625,0.164941 l -4.5445606,2.62123 C 6.4217137,21.565815 6.1364364,21.730294 5.9309426,21.695545 5.7524372,21.665313 5.5983372,21.553422 5.5144301,21.392881 5.4178395,21.208249 5.4861676,20.886126 5.6228352,20.241764 l 1.0885226,-5.132073 c 0.040401,-0.19054 0.060602,-0.285752 0.051011,-0.37691 -0.00849,-0.08062 -0.033822,-0.158571 -0.074363,-0.22888 C 6.6421948,14.424561 6.569871,14.359345 6.4252342,14.229037 L 2.5280006,10.716844 C 2.0387237,10.27588 1.7940795,10.055456 1.7636626,9.8492786 1.7372534,9.6701593 1.7961065,9.4890014 1.9227549,9.359631 2.0685615,9.2106854 2.3960704,9.1761218 3.0510882,9.1069945 L 8.2684006,8.5563278 C 8.4620449,8.5358955 8.5588555,8.5256793 8.6425773,8.4883821 8.7166505,8.4553937 8.7829747,8.4071969 8.8372526,8.3469422 8.8985845,8.2788459 8.9382214,8.1899233 9.017507,8.0120781 Z"
     stroke="#000000"
     stroke-width="2.3166"
     stroke-linecap="round"
     stroke-linejoin="round"
     id="path1"
     style="stroke:#ffffff;stroke-opacity:1" />
</svg>
