<?xml version="1.0" encoding="UTF-8" standalone="no"?>
<!-- Uploaded to: SVG Repo, www.svgrepo.com, Generator: SVG Repo Mixer Tools -->

<svg
   width="800px"
   height="800px"
   viewBox="0 0 24 24"
   fill="none"
   version="1.1"
   id="svg1"
   sodipodi:docname="star-filled-mask.svg"
   inkscape:version="1.4 (e7c3feb100, 2024-10-09)"
   xmlns:inkscape="http://www.inkscape.org/namespaces/inkscape"
   xmlns:sodipodi="http://sodipodi.sourceforge.net/DTD/sodipodi-0.dtd"
   xmlns="http://www.w3.org/2000/svg"
   xmlns:svg="http://www.w3.org/2000/svg">
  <defs
     id="defs1" />
  <sodipodi:namedview
     id="namedview1"
     pagecolor="#505050"
     bordercolor="#eeeeee"
     borderopacity="1"
     inkscape:showpageshadow="0"
     inkscape:pageopacity="0"
     inkscape:pagecheckerboard="0"
     inkscape:deskcolor="#505050"
     inkscape:zoom="1.00125"
     inkscape:cx="400"
     inkscape:cy="400"
     inkscape:window-width="1920"
     inkscape:window-height="1010"
     inkscape:window-x="0"
     inkscape:window-y="0"
     inkscape:window-maximized="1"
     inkscape:current-layer="svg1" />
  <path
     d="m 11.075979,2.4232079 c 0.292686,-0.6566515 0.439091,-0.9849772 0.642896,-1.0860832 0.177002,-0.087843 0.384853,-0.087843 0.561855,0 0.203805,0.101106 0.35021,0.4294317 0.642896,1.0860832 l 2.331367,5.2303154 c 0.0866,0.1941204 0.129843,0.2911807 0.196851,0.3655088 0.05917,0.065769 0.131613,0.1183763 0.212402,0.1543835 0.09141,0.04071 0.197104,0.051861 0.408495,0.074164 l 5.694781,0.6010602 c 0.714961,0.075453 1.072378,0.11318 1.231553,0.2757562 0.138188,0.1412096 0.202414,0.3389459 0.173588,0.534457 -0.03312,0.2250452 -0.300144,0.465641 -0.834184,0.94696 l -4.253986,3.833606 c -0.157784,0.142234 -0.236803,0.213414 -0.286743,0.300018 -0.04425,0.07674 -0.07194,0.161831 -0.08117,0.249826 -0.01049,0.0995 0.0115,0.203425 0.05563,0.411403 l 1.188188,5.601728 c 0.149188,0.703329 0.223781,1.054931 0.118339,1.25646 -0.09166,0.175232 -0.259814,0.297363 -0.454642,0.330361 -0.224287,0.03793 -0.535684,-0.141601 -1.158477,-0.500788 l -4.960476,-2.861108 c -0.184082,-0.106202 -0.276123,-0.159176 -0.37398,-0.180037 -0.0866,-0.01833 -0.176117,-0.01833 -0.262721,0 -0.09786,0.02086 -0.189898,0.07384 -0.37398,0.180037 l -4.9604505,2.861108 c -0.6227683,0.359187 -0.9341524,0.538717 -1.1584517,0.500788 -0.194841,-0.033 -0.3630433,-0.155129 -0.4546291,-0.330361 -0.1054299,-0.201529 -0.030849,-0.553131 0.1183257,-1.25646 l 1.1881374,-5.601728 c 0.044099,-0.207978 0.066148,-0.311903 0.05568,-0.411403 -0.00927,-0.08799 -0.036918,-0.173083 -0.081168,-0.249826 C 6.1519018,14.652837 6.072959,14.581653 5.915086,14.439419 L 1.6612018,10.605813 C 1.1271494,10.124494 0.86011688,9.883898 0.82691639,9.6588528 0.79809038,9.4633417 0.8623294,9.2656054 1.0005678,9.1243958 1.1597178,8.9618196 1.5171982,8.924093 2.2321592,8.8486396 L 7.9269273,8.2475794 C 8.1382928,8.2252771 8.2439629,8.214126 8.3353464,8.1734156 8.4161983,8.1374084 8.4885921,8.0848009 8.5478371,8.0190321 8.6147817,7.944704 8.658046,7.8476437 8.7445873,7.6535233 Z"
     stroke="#000000"
     stroke-width="2.5286"
     stroke-linecap="round"
     stroke-linejoin="round"
     id="path1"
     style="fill:#ffffff;fill-opacity:1;stroke:none" />
</svg>
