<?xml version="1.0" encoding="UTF-8" standalone="no"?>
<!-- Created with Inkscape (http://www.inkscape.org/) -->

<svg
   width="149.89937"
   height="155.64737"
   viewBox="0 0 39.660874 41.1817"
   version="1.1"
   id="svg1"
   xmlns="http://www.w3.org/2000/svg"
   xmlns:svg="http://www.w3.org/2000/svg">
  <defs
     id="defs1" />
  <g
     id="layer1"
     transform="translate(-7.1523226,-5.3105726)">
    <path
       d="M 30.021066,36.424213 27.764567,29.0472 H 16.482076 l -2.256499,7.377013 H 7.1523228 L 18.087661,5.3105725 h 8.027927 L 37.09432,36.424213 Z M 23.945878,16.332699 q -0.216971,-0.737701 -0.564125,-1.86595 -0.347153,-1.12825 -0.694307,-2.299893 -0.347153,-1.171643 -0.564124,-2.039527 -0.216971,0.867884 -0.607519,2.16971 -0.347154,1.258431 -0.694307,2.430075 -0.30376,1.128249 -0.477337,1.605585 l -2.213104,7.203437 h 8.071321 z"
       id="text1"
       style="font-weight:bold;font-size:43.3942px;font-family:Sans;-inkscape-font-specification:'Sans Bold';fill:#ffffff;stroke-width:22.6012"
       aria-label="A" />
    <path
       fill="#000000"
       d="m 29.262233,34.716865 0.704655,0.560734 V 24.076008 c -0.04697,-2.104045 1.645806,-3.835036 3.750374,-3.835036 2.104568,0 3.797349,1.730991 3.750374,3.835036 v 4.898944 c -1.41e-4,0.4126 0.270286,0.776476 0.665404,0.895305 l 6.016673,1.803693 c 1.581214,0.474638 2.663848,1.930305 2.663485,3.581219 v 9.367992 c 0,1.032282 -0.83683,1.869112 -1.869112,1.869112 H 29.991187 c -1.176634,0 -2.2846,-0.553983 -2.99058,-1.49529 l -5.272766,-7.031601 c -1.094186,-1.458193 -0.73406,-3.536825 0.786896,-4.541943 1.671795,-1.104994 3.86519,-1.006872 5.431641,0.242985 z"
       id="path1"
       style="fill:#ffffff;fill-opacity:0.75;stroke-width:0.0292049" />
  </g>
</svg>
