<!DOCTYPE svg PUBLIC "-//W3C//DTD SVG 1.1//EN" "http://www.w3.org/Graphics/SVG/1.1/DTD/svg11.dtd">
<!-- Uploaded to: SVG Repo, www.svgrepo.com, Transformed by: SVG Repo Mixer Tools -->
<svg fill="#ffffff" height="800px" width="800px" version="1.1" id="Layer_1" xmlns="http://www.w3.org/2000/svg" xmlns:xlink="http://www.w3.org/1999/xlink" viewBox="0 0 511.999 511.999" xml:space="preserve">
<g id="SVGRepo_bgCarrier" stroke-width="0"/>
<g id="SVGRepo_tracerCarrier" stroke-linecap="round" stroke-linejoin="round"/>
<g id="SVGRepo_iconCarrier"> <g> <g> <path d="M437.02,74.98C388.667,26.628,324.379,0,255.999,0S123.333,26.628,74.98,74.98C26.628,123.333,0,187.62,0,255.999 s26.628,132.667,74.98,181.019c48.352,48.352,112.639,74.98,181.019,74.98s132.667-26.628,181.019-74.98 c48.352-48.352,74.98-112.639,74.98-181.019S485.371,123.333,437.02,74.98z M454.124,158.127 c12.207,24.468,19.976,51.696,22.232,80.395H369.37c-1.413-27.842-6.267-54.762-14.179-80.395H454.124z M432.519,123.173h-90.485 c-14.901-33.789-35.434-62.812-60.671-86.687C342.966,43.557,396.947,75.402,432.519,123.173z M177.687,238.522 c1.679-27.76,7.38-54.762,16.551-80.395h124.204c8.882,25.633,14.327,52.286,15.91,80.395H177.687z M334.29,273.477 c-1.698,27.818-7.329,54.762-16.357,80.395H193.763c-8.939-25.633-14.44-52.263-16.079-80.395H334.29z M256.145,60.709 c18.802,17.489,34.662,39.162,47.116,62.464h-93.68C222.036,99.87,237.749,78.22,256.145,60.709z M230.988,36.446 c-24.545,23.649-45.252,52.938-60.415,86.727H79.48C115.121,75.402,169.239,43.433,230.988,36.446z M57.876,158.127h99.362 c-8.175,25.633-13.13,53.014-14.59,80.395H35.644C37.9,209.824,45.669,182.595,57.876,158.127z M57.876,353.871 c-12.207-24.468-19.976-51.695-22.232-80.395H142.66c1.462,27.861,6.364,54.762,14.324,80.395H57.876z M79.48,388.826h90.746 c15.025,33.789,35.722,62.919,61.158,86.773C169.471,468.707,115.197,436.597,79.48,388.826z M256.566,451.332 c-18.96-17.467-34.958-38.037-47.521-62.505h93.738C290.431,412.129,274.834,433.893,256.566,451.332z M281.861,475.456 c24.3-23.522,44.79-52.84,59.809-86.63h90.85C397.042,435.431,343.256,468.269,281.861,475.456z M454.123,353.871h-99.268 c8.073-25.633,12.981-52.99,14.464-80.395h107.036C474.1,302.176,466.331,329.403,454.123,353.871z"/> </g> </g> </g>
</svg>