<svg width="512" height="512" viewBox="0 0 512 512" fill="none" xmlns="http://www.w3.org/2000/svg">
<rect x="14" y="126.186" width="236.402" height="334.728" rx="27" transform="rotate(-14 14 126.186)" fill="#E79600"/>
<path d="M161.507 174.325L182.581 269.837L158.367 275.874L132.068 181.665L161.507 174.325ZM181.031 315.195C176.664 316.284 172.531 315.675 168.629 313.369C164.717 311.018 162.239 307.654 161.194 303.277C160.073 298.965 160.693 294.876 163.054 291.008C165.416 287.14 168.78 284.661 173.146 283.573C177.336 282.528 181.404 283.153 185.349 285.449C189.294 287.745 191.828 291.048 192.949 295.359C193.631 298.281 193.525 301.142 192.63 303.941C191.768 306.686 190.328 309.083 188.309 311.132C186.28 313.137 183.853 314.492 181.031 315.195Z" fill="white"/>
<rect x="232.21" y="47" width="269.103" height="381.031" rx="27" transform="rotate(9 232.21 47)" fill="#464EE8"/>
<path d="M308.847 279.205L309.21 276.915C310.499 269.066 312.187 262.913 314.273 258.457C316.405 254.009 319.022 250.557 322.126 248.104C325.23 245.65 328.83 243.551 332.926 241.807C335.994 240.452 338.781 238.983 341.286 237.401C343.792 235.819 345.88 233.964 347.552 231.835C349.231 229.662 350.301 227.117 350.764 224.198C351.254 221.101 350.944 218.267 349.832 215.698C348.72 213.129 347.007 211.017 344.692 209.361C342.422 207.713 339.783 206.651 336.775 206.174C333.856 205.712 330.992 205.926 328.182 206.816C325.379 207.66 322.948 209.208 320.889 211.459C318.836 213.665 317.451 216.598 316.734 220.258L289.258 215.907C290.905 206.963 294.233 199.897 299.243 194.707C304.26 189.473 310.363 185.953 317.552 184.146C324.749 182.295 332.41 182.012 340.536 183.299C349.47 184.714 357.137 187.447 363.536 191.498C369.943 195.505 374.658 200.6 377.683 206.786C380.707 212.972 381.597 219.993 380.352 227.849C379.52 233.102 377.905 237.632 375.507 241.441C373.161 245.211 370.191 248.422 366.595 251.074C363.007 253.681 358.903 255.908 354.285 257.753C350.404 259.302 347.138 261.039 344.485 262.966C341.878 264.9 339.775 267.283 338.176 270.113C336.622 272.95 335.474 276.565 334.733 280.958L334.37 283.247L308.847 279.205ZM315.355 324.416C310.865 323.705 307.276 321.525 304.586 317.878C301.948 314.193 301.004 310.131 301.752 305.694C302.404 301.287 304.551 297.761 308.191 295.116C311.876 292.478 315.964 291.515 320.453 292.226C324.718 292.902 328.218 295.067 330.953 298.721C333.687 302.376 334.729 306.407 334.077 310.813C333.563 313.769 332.347 316.361 330.429 318.589C328.564 320.778 326.301 322.422 323.642 323.519C320.991 324.572 318.228 324.871 315.355 324.416Z" fill="white"/>
</svg>
